<?xml version="1.0" encoding="UTF-8"?>
<svg version="1.1"
     xmlns="http://www.w3.org/2000/svg"
     width="1662"
     height="491.25"
     viewBox="0 0 1662 491.25"
     preserveAspectRatio="xMidYMid meet">
<path d="M0 0 C20.79 0 41.58 0 63 0 C66.58875 6.5278125 66.58875 6.5278125 70.25 13.1875 C76.5280398 24.58027332 82.89490382 35.91566161 89.38378906 47.18994141 C92.55588482 52.70517134 95.71615533 58.22717354 98.875 63.75 C99.21398315 64.34250549 99.55296631 64.93501099 99.90222168 65.54547119 C105.3215466 75.02139508 110.67369175 84.53344801 115.99609375 94.06420898 C121.05854982 103.12315122 126.19796084 112.13640524 131.36035156 121.13867188 C134.15574926 126.01688227 136.94370875 130.89934254 139.73248291 135.78134155 C141.441155 138.77236328 143.15028974 141.76312061 144.859375 144.75390625 C145.55143448 145.96500526 146.24349177 147.17610552 146.93554688 148.38720703 C147.27739014 148.98543274 147.6192334 149.58365845 147.97143555 150.20001221 C148.98681641 151.97692871 150.00219727 153.75384521 151.01757812 155.53076172 C151.3476889 156.10845306 151.67779968 156.68614441 152.01791382 157.28134155 C152.68347027 158.44607043 153.34901795 159.61080433 154.01455688 160.77554321 C155.6655862 163.6649329 157.31679725 166.55421836 158.96826172 169.44335938 C162.10112666 174.92451898 165.23253707 180.40649136 168.35906982 185.89126587 C169.8402341 188.48942667 171.32218525 191.08713825 172.80419922 193.68481445 C173.51227617 194.92645145 174.21996505 196.16830985 174.92724609 197.41040039 C175.9062519 199.12962439 176.88668703 200.84803424 177.8671875 202.56640625 C178.42519043 203.54552979 178.98319336 204.52465332 179.55810547 205.53344727 C180.64481186 207.39240336 181.80557081 209.20835622 183 211 C183.87738577 182.72785498 184.14851458 154.45531749 184.31640625 126.171875 C184.32181915 125.2600049 184.32723205 124.3481348 184.33280897 123.40863228 C184.39937124 112.08978595 184.45951497 100.77090899 184.51740873 89.4520154 C184.56757745 79.67373921 184.62219359 69.89548918 184.67708123 60.11723852 C184.78947073 40.07818253 184.89601281 20.03910148 185 0 C202.82 0 220.64 0 239 0 C239 97.68 239 195.36 239 296 C218.87 296 198.74 296 178 296 C172.85646284 287.64175212 167.86165092 279.32660998 163.125 270.75 C159.19639053 263.68548669 155.25496354 256.63650921 151.125 249.6875 C146.77180802 242.35930802 142.53374883 234.96721265 138.3125 227.5625 C133.0660551 218.36075525 127.80071901 209.17065088 122.5 200 C117.28355153 190.97470522 112.10085019 181.93072187 106.9375 172.875 C101.44558935 163.24368387 95.89420077 153.64906966 90.29101562 144.08203125 C87.17590834 138.75495085 84.08434012 133.4153303 81.02734375 128.0546875 C80.51658798 127.15910126 80.51658798 127.15910126 79.99551392 126.24542236 C78.36697314 123.38800398 76.74132352 120.52900453 75.11914062 117.66796875 C70.89771999 110.2457891 66.58171336 102.88365033 62.23266602 95.53564453 C61.63192513 94.51986832 61.03118423 93.5040921 60.41223907 92.45753479 C58.94187587 89.97146286 57.47112021 87.48562402 56 85 C55.42408996 120.599224 54.93279687 156.19763977 54.68359375 191.80078125 C54.6754744 192.96077582 54.6754744 192.96077582 54.66719103 194.14420462 C54.60212854 203.50081308 54.54146721 212.85744769 54.48259127 222.2140969 C54.43159612 230.30004998 54.37732637 238.38598035 54.32291877 246.47191107 C54.21189916 262.98125327 54.10498329 279.49061815 54 296 C36.18 296 18.36 296 0 296 C0 198.32 0 100.64 0 0 Z " fill="#FFFFFF" transform="translate(1146,92)"/>
<path d="M0 0 C97.14634748 0 97.14634748 0 114.625 2.75 C116.32910034 3.01224365 116.32910034 3.01224365 118.06762695 3.27978516 C153.68250868 9.00490692 186.23186265 23.66018153 208.0625 53.4375 C222.9597572 74.72357892 231.20705369 98.45148946 235 124 C235.103125 124.68932617 235.20625 125.37865234 235.3125 126.08886719 C236.24930647 133.27885682 236.24355521 140.5095542 236.25 147.75 C236.25067474 148.43396851 236.25134949 149.11793701 236.25204468 149.82263184 C236.18937378 190.01868819 223.46292338 227.6322005 195.7734375 257.28125 C144.44411481 307.5984452 64.76352133 296 0 296 C0 198.32 0 100.64 0 0 Z M54 52 C54 115.36 54 178.72 54 244 C111.04135604 243.30564803 111.04135604 243.30564803 157.91796875 214.5234375 C175.60115559 194.88272242 182.07306383 168.36796705 180.81640625 142.40625 C178.92811504 116.03940242 170.23696967 93.21519784 150.984375 74.57421875 C123.93863077 51.24549434 87.51600183 52.95760005 54 52 Z " fill="#FFFFFF" transform="translate(656,92)"/>
<path d="M0 0 C17.82 0 35.64 0 54 0 C54.02505615 4.52444824 54.0501123 9.04889648 54.07592773 13.71044922 C54.16045279 28.87742477 54.24894713 44.0443754 54.33933926 59.21131706 C54.39390208 68.38191648 54.4472017 77.55251963 54.49731445 86.72314453 C54.62369231 109.74535126 54.77070715 132.76726491 54.97991467 155.78888512 C54.99308236 157.23846496 55.00611132 158.68804608 55.0189867 160.13762856 C55.09012736 168.12579378 55.17687502 176.11347338 55.30092049 184.101017 C55.33141422 186.16073465 55.35745356 188.22052447 55.37841606 190.28036118 C55.5588263 207.18421488 56.30547372 222.51789618 68.125 235.75 C77.60783258 244.64409797 89.68881554 247.53765004 102.2734375 247.30859375 C113.96706017 246.34025393 123.84697295 242.37828238 132.02734375 233.8984375 C143.47312482 220.20221744 143.29762249 202.49298706 143.30297852 185.46972656 C143.31067039 183.99197439 143.31922236 182.5142265 143.32855225 181.03648376 C143.34664825 177.88346151 143.35880376 174.73049631 143.36609077 171.57743073 C143.37778208 166.54006395 143.40333802 161.50281937 143.43040466 156.46551514 C143.47189552 148.44718744 143.50434617 140.42885309 143.53287882 132.41046977 C143.58972283 116.48830854 143.6630669 100.5662165 143.74140882 84.64414787 C143.75387526 82.0844881 143.76587424 79.52482643 143.77782059 76.96516418 C143.89970923 51.29835528 144.28593126 25.65926363 145 0 C162.82 0 180.64 0 199 0 C199.02262476 25.24435385 199.0410244 50.48869941 199.05181217 75.73306084 C199.05695556 87.45599609 199.06396075 99.17892457 199.07543945 110.90185547 C199.08544631 121.12655299 199.09186764 131.3512456 199.09408849 141.57594788 C199.09538545 146.98345747 199.09840647 152.39095303 199.10573006 157.7984581 C199.11258524 162.9021035 199.11459791 168.00572925 199.11310768 173.10937881 C199.11337978 174.96916054 199.11532799 176.82894301 199.11920547 178.6887207 C199.18349235 211.15213325 199.18349235 211.15213325 196.3125 223.625 C196.13879883 224.40439941 195.96509766 225.18379883 195.78613281 225.98681641 C190.06381032 250.39842265 176.76103948 271.82842406 155.2734375 285.4140625 C146.02921164 290.98895666 136.34973406 294.9775704 126 298 C125.11626709 298.26707764 124.23253418 298.53415527 123.32202148 298.80932617 C97.62470573 305.98439803 70.85677601 300.42393807 47.80712891 288.02783203 C43.21084168 285.41362382 39.06565343 282.36776961 35 279 C34.15050781 278.30132812 33.30101562 277.60265625 32.42578125 276.8828125 C11.62428628 258.98014761 2.80400843 235.73875627 0 209 C-0.46712403 201.89342719 -0.3823122 194.77542609 -0.34057617 187.6574707 C-0.33972747 185.59558118 -0.34020978 183.53369076 -0.34190369 181.47180176 C-0.34275557 175.93789756 -0.32526224 170.40419311 -0.30418181 164.87033486 C-0.28527876 159.0634848 -0.28365393 153.25662889 -0.28010559 147.44975281 C-0.27082482 136.48201689 -0.24626539 125.51437194 -0.21605712 114.54667586 C-0.18238876 102.04829967 -0.16599599 89.54991888 -0.15097082 77.05150855 C-0.1197118 51.3676105 -0.06475001 25.68383696 0 0 Z " fill="#FFFFFF" transform="translate(400,92)"/>
<path d="M0 0 C52.14 0 104.28 0 158 0 C158 17.16 158 34.32 158 52 C123.68 52 89.36 52 54 52 C54 75.1 54 98.2 54 122 C87 122 120 122 154 122 C154 139.16 154 156.32 154 174 C121 174 88 174 54 174 C54 197.1 54 220.2 54 244 C88.32 244 122.64 244 158 244 C158 261.16 158 278.32 158 296 C105.86 296 53.72 296 0 296 C0 198.32 0 100.64 0 0 Z " fill="#FFFFFF" transform="translate(938,92)"/>
<path d="M0 0 C24.19191633 -0.66430892 45.95301837 6.73795467 64.2890625 22.53125 C82.8340059 40.16563972 89.04329032 59.02371167 90.9765625 84.15625 C72.1665625 84.15625 53.3565625 84.15625 33.9765625 84.15625 C32.6565625 79.20625 31.3365625 74.25625 29.9765625 69.15625 C25.64805579 61.87648871 20.31886669 57.2459861 12.1015625 54.84375 C2.95768902 52.9864007 -6.09978409 53.78589547 -14.2890625 58.4453125 C-20.89954256 63.02368203 -23.7902121 68.46297774 -26.0234375 76.15625 C-27.15203016 86.6154169 -25.43452441 94.15432668 -18.8984375 102.34375 C-10.2851666 111.29803611 1.57012003 114.96511968 12.91189575 119.30325317 C58.06699677 136.61400972 58.06699677 136.61400972 68.9765625 147.15625 C70.04163351 148.13284866 71.10674044 149.10940815 72.171875 150.0859375 C88.81459418 165.68357676 97.17561742 184.74764324 98.19140625 207.43359375 C98.950868 233.13243926 91.17857404 257.42356966 73.6640625 276.53125 C55.84154542 295.20098239 32.25673254 305.97808504 6.41186523 306.81591797 C-6.43284083 306.91459689 -17.93311946 305.45024908 -30.0234375 301.15625 C-31.01706299 300.82729736 -31.01706299 300.82729736 -32.03076172 300.49169922 C-55.03298334 292.83194221 -72.86689886 276.46423583 -84.27026367 255.23828125 C-88.22286566 247.32704738 -90.13408399 238.74898606 -92.0234375 230.15625 C-92.23097656 229.31320312 -92.43851562 228.47015625 -92.65234375 227.6015625 C-93.1750758 224.15703343 -93.0234375 220.64021747 -93.0234375 217.15625 C-74.2134375 217.15625 -55.4034375 217.15625 -36.0234375 217.15625 C-34.7034375 222.10625 -33.3834375 227.05625 -32.0234375 232.15625 C-26.86990968 241.95805781 -21.55838537 247.56761636 -10.9609375 251.03125 C2.69985359 254.22195226 16.83121684 252.77678585 28.9140625 245.40625 C35.65993718 240.47990482 39.75593418 234.1590941 41.9765625 226.15625 C42.39007312 223.20413214 42.45542316 220.32171748 42.4140625 217.34375 C42.40431396 216.55548828 42.39456543 215.76722656 42.38452148 214.95507812 C42.06220034 204.29990581 38.92461897 197.03099102 31.421875 189.359375 C18.87458724 178.05478986 0.06492988 172.90961836 -15.4609375 167.03125 C-29.69111965 161.61420734 -42.10744302 155.8456061 -54.0234375 146.15625 C-54.75175781 145.59292969 -55.48007812 145.02960938 -56.23046875 144.44921875 C-70.19425237 133.12946516 -79.91105855 114.95711828 -82.0234375 97.15625 C-83.75223981 73.98954243 -80.6872374 52.65996733 -66.2109375 33.84375 C-64.84128158 32.25825336 -63.44391829 30.69637703 -62.0234375 29.15625 C-61.20101562 28.24230469 -60.37859375 27.32835938 -59.53125 26.38671875 C-43.92331009 9.85135053 -22.50555421 1.16307774 0 0 Z " fill="#FFFFFF" transform="translate(94.0234375,86.84375)"/>
<path d="M0 0 C19.14 0 38.28 0 58 0 C67.31448228 18.62896455 67.31448228 18.62896455 70.91796875 25.984375 C71.33713058 26.83942627 71.75629242 27.69447754 72.18815613 28.57543945 C73.52256215 31.2996633 74.85532491 34.02468456 76.1875 36.75 C76.65142151 37.69862915 77.11534302 38.6472583 77.59332275 39.62463379 C83.46677673 51.64365921 89.23315039 63.69618672 94.79833984 75.86132812 C103.81058962 95.42217132 113.48782475 114.67896555 123 134 C123.73029419 132.53832397 123.73029419 132.53832397 124.4753418 131.04711914 C127.94206359 124.11024569 131.41255041 117.17532149 134.89453125 110.24609375 C141.75480422 96.58535242 148.54250734 82.90031205 155.09765625 69.08984375 C159.00409272 60.86788357 162.99291581 52.68575244 166.97079468 44.49819946 C170.52746487 37.17674872 174.07872838 29.85311241 177.5859375 22.5078125 C178.13386963 21.36103027 178.68180176 20.21424805 179.24633789 19.03271484 C180.26074803 16.90648589 181.27308913 14.77926806 182.28295898 12.65087891 C182.73227783 11.70905762 183.18159668 10.76723633 183.64453125 9.796875 C184.02971924 8.98573242 184.41490723 8.17458984 184.81176758 7.33886719 C185.20388428 6.56704102 185.59600098 5.79521484 186 5 C186.40645752 4.13846817 186.81291504 3.27693634 187.23168945 2.38929749 C189 0 189 0 191.48674011 -0.60127258 C192.96899834 -0.584618 192.96899834 -0.584618 194.48120117 -0.56762695 C195.60213669 -0.5672493 196.7230722 -0.56687164 197.87797546 -0.56648254 C199.08742325 -0.54067612 200.29687103 -0.51486969 201.54296875 -0.48828125 C202.78170242 -0.48120651 204.0204361 -0.47413177 205.29670715 -0.46684265 C208.58683916 -0.44357641 211.875747 -0.39867166 215.16546631 -0.34332275 C218.52356994 -0.2921337 221.88185288 -0.26932959 225.24023438 -0.24414062 C231.82730291 -0.18895341 238.41355131 -0.10523618 245 0 C245.28932768 8.50088197 245.28932768 8.50088197 242.97265625 12.43359375 C242.51874512 13.23047607 242.06483398 14.0273584 241.59716797 14.84838867 C240.83750732 16.12999878 240.83750732 16.12999878 240.0625 17.4375 C238.95803737 19.37782238 237.85806384 21.32070441 236.76171875 23.265625 C235.85945557 24.86180664 235.85945557 24.86180664 234.93896484 26.49023438 C231.23837736 33.12642389 227.83308398 39.92302664 224.375 46.6875 C222.90719971 49.55126873 221.43801329 52.4143254 219.96875 55.27734375 C219.44339409 56.30174812 219.44339409 56.30174812 218.90742493 57.34684753 C216.26322505 62.49895969 213.58496456 67.63214438 210.875 72.75 C206.69836589 80.64010063 202.59542622 88.56756432 198.5 96.5 C193.95897556 105.29487833 189.39692914 114.07746828 184.77294922 122.82910156 C181.19010503 129.61873086 177.65572011 136.4331449 174.125 143.25 C164.95784892 160.94441377 164.95784892 160.94441377 160.375 169.75 C159.89047363 170.68360352 159.40594727 171.61720703 158.90673828 172.57910156 C158.45024902 173.4553418 157.99375977 174.33158203 157.5234375 175.234375 C157.13075684 175.98944336 156.73807617 176.74451172 156.33349609 177.52246094 C155 180 155 180 152.95077515 182.97981262 C150.23510306 187.75960577 150.4268642 192.41809078 150.45410156 197.80053711 C150.43859505 199.39677917 150.43859505 199.39677917 150.42277527 201.02526855 C150.39338899 204.52611551 150.39184892 208.02638325 150.390625 211.52734375 C150.37564062 213.96115723 150.35891293 216.39496054 150.34051514 218.82875061 C150.29685891 225.22214225 150.27684612 231.61539671 150.26177979 238.00891113 C150.23875827 245.68664683 150.18633051 253.36423139 150.13883972 261.04184723 C150.07004855 272.69460426 150.03857995 284.34692737 150 296 C132.18 296 114.36 296 96 296 C96.17144531 288.53503906 96.34289063 281.07007813 96.51953125 273.37890625 C96.58147932 268.5522407 96.63692117 263.7271325 96.66992188 258.90039062 C96.72251409 251.29436659 96.79473186 243.6934386 97.01147461 236.09008789 C97.93317105 202.56886348 94.90741108 178.02291454 76.75061035 149.4569397 C72.41320391 142.56634348 68.76447664 135.29116297 65.05219078 128.05124092 C63.50901923 125.04283532 61.94483962 122.04552812 60.3828125 119.046875 C59.29634336 116.94819181 58.21040631 114.84923307 57.125 112.75 C52.76346545 104.3262519 48.39233857 95.9077282 44 87.5 C39.65121358 79.17464023 35.32091854 70.83985643 31 62.5 C26.6359616 54.07758498 22.26353763 45.65967626 17.875 37.25 C17.15715332 35.87183105 17.15715332 35.87183105 16.42480469 34.46582031 C13.83013304 29.48817982 11.21800587 24.5204786 8.5859375 19.5625 C8.02793457 18.50643555 7.46993164 17.45037109 6.89501953 16.36230469 C5.82032267 14.32902544 4.74077407 12.2983012 3.65576172 10.27050781 C3.1763916 9.36139648 2.69702148 8.45228516 2.203125 7.515625 C1.77676758 6.71415039 1.35041016 5.91267578 0.91113281 5.08691406 C0 3 0 3 0 0 Z " fill="#FFFFFF" transform="translate(1417,92)"/>
<path d="M0 0 C54.12 0 108.24 0 164 0 C164 17.16 164 34.32 164 52 C145.85 52 127.7 52 109 52 C109 132.52 109 213.04 109 296 C91.18 296 73.36 296 55 296 C55 215.48 55 134.96 55 52 C36.85 52 18.7 52 0 52 C0 34.84 0 17.68 0 0 Z " fill="#FFFFFF" transform="translate(207,92)"/>
<path d="M0 0 C1.39054495 0.03521805 2.78117747 0.06713833 4.171875 0.09570312 C7.53355085 0.17741052 10.89058753 0.29192546 14.25 0.4375 C14.64324463 1.23994141 15.03648926 2.04238281 15.44165039 2.86914062 C15.96750732 3.93326172 16.49336426 4.99738281 17.03515625 6.09375 C17.81064819 7.66866211 17.81064819 7.66866211 18.60180664 9.27539062 C20.59697672 13.10318544 22.85779992 16.68983071 25.24609375 20.28125 C26.25 22.4375 26.25 22.4375 26.13964844 24.3828125 C24.82596057 27.41684025 22.95043785 28.014434 20.01953125 29.46875 C18.91883301 30.02522217 17.81813477 30.58169434 16.68408203 31.1550293 C16.09483948 31.44501801 15.50559692 31.73500671 14.89849854 32.03378296 C12.40109819 33.26305586 9.91905307 34.52194186 7.43591309 35.77970886 C6.17014177 36.42068568 4.90361537 37.06017351 3.63635254 37.69819641 C-1.68873132 40.3842926 -6.91352565 43.22660707 -12.125 46.125 C-21.61628162 51.35386164 -31.20803658 56.38727927 -40.83087158 61.36880493 C-42.52011737 62.2443897 -44.20791882 63.12276693 -45.89422607 64.0039978 C-48.2717084 65.24521501 -50.65451826 66.47554124 -53.0390625 67.703125 C-53.75789612 68.08062393 -54.47672974 68.45812286 -55.21734619 68.84706116 C-58.72736312 70.63858945 -60.73000547 71.4375 -64.75 71.4375 C-66.47525171 69.42023545 -67.86873831 67.52713515 -69.296875 65.3125 C-69.71294006 64.69101074 -70.12900513 64.06952148 -70.55767822 63.42919922 C-71.88487323 61.44031045 -73.19246175 59.43935305 -74.5 57.4375 C-75.39587398 56.08770359 -76.29299463 54.73873372 -77.19140625 53.390625 C-79.39219 50.08233735 -81.57547277 46.76309888 -83.75 43.4375 C-82.27633981 39.59779075 -80.40140095 38.33128526 -76.8515625 36.36328125 C-75.82820801 35.78642578 -74.80485352 35.20957031 -73.75048828 34.61523438 C-72.63657715 33.99970703 -71.52266602 33.38417969 -70.375 32.75 C-68.00870713 31.41566176 -65.64393494 30.0789652 -63.28125 28.73828125 C-62.66814972 28.39145294 -62.05504944 28.04462463 -61.42337036 27.68728638 C-53.89669316 23.41377741 -46.52118456 18.89379439 -39.13995361 14.37539673 C-36.39435474 12.69473137 -33.64587592 11.0206089 -30.88476562 9.36547852 C-28.82669483 8.09970086 -26.80183127 6.77793526 -24.81835938 5.39819336 C-16.60712639 -0.06790903 -9.66517468 -0.43181356 0 0 Z " fill="#FFFFFF" transform="translate(1584.75,-0.43750000000000006)"/>
</svg>
